<mxfile host="app.diagrams.net" modified="2020-09-18T06:44:45.482Z" agent="5.0 (X11; Linux x86_64) AppleWebKit/537.36 (KHTML, like Gecko) Chrome/81.0.4044.138 Safari/537.36" etag="ygbI30HwN1T_htpgNYak" version="13.7.2" type="github">
  <diagram id="_4T7332s6qqC0iSp6x48" name="Page-1">
    <mxGraphModel dx="942" dy="621" grid="1" gridSize="10" guides="1" tooltips="1" connect="1" arrows="1" fold="1" page="1" pageScale="1" pageWidth="827" pageHeight="1169" math="0" shadow="1">
      <root>
        <mxCell id="0" />
        <mxCell id="1" parent="0" />
        <mxCell id="gm_n-ACZynz3XcOMJZWt-2" value="" style="edgeStyle=none;orthogonalLoop=1;jettySize=auto;html=1;labelBackgroundColor=#F1FAEE;strokeColor=#457B9D;fontColor=#1D3557;" parent="1" source="gm_n-ACZynz3XcOMJZWt-3" target="gm_n-ACZynz3XcOMJZWt-4" edge="1">
          <mxGeometry relative="1" as="geometry" />
        </mxCell>
        <mxCell id="gm_n-ACZynz3XcOMJZWt-3" value="table client" style="whiteSpace=wrap;html=1;fontSize=12;glass=0;strokeWidth=1;shadow=0;strokeColor=#457B9D;fillColor=#A8DADC;fontColor=#1D3557;rounded=1;" parent="1" vertex="1">
          <mxGeometry x="170" y="40" width="120" height="40" as="geometry" />
        </mxCell>
        <mxCell id="gm_n-ACZynz3XcOMJZWt-4" value="esb" style="whiteSpace=wrap;html=1;fontSize=12;glass=0;strokeWidth=1;shadow=0;fillColor=#A8DADC;strokeColor=#457B9D;fontColor=#1D3557;rounded=1;" parent="1" vertex="1">
          <mxGeometry x="181.5" y="239.5" width="98" height="40" as="geometry" />
        </mxCell>
        <mxCell id="gm_n-ACZynz3XcOMJZWt-5" value="" style="edgeStyle=orthogonalEdgeStyle;orthogonalLoop=1;jettySize=auto;html=1;exitX=1;exitY=0;exitDx=0;exitDy=0;exitPerimeter=0;labelBackgroundColor=#F1FAEE;strokeColor=#457B9D;fontColor=#1D3557;" parent="1" edge="1">
          <mxGeometry relative="1" as="geometry">
            <mxPoint x="328.5" y="129" as="sourcePoint" />
            <mxPoint x="381" y="130" as="targetPoint" />
            <Array as="points">
              <mxPoint x="340" y="130" />
              <mxPoint x="340" y="130" />
            </Array>
          </mxGeometry>
        </mxCell>
        <mxCell id="gm_n-ACZynz3XcOMJZWt-6" style="edgeStyle=none;orthogonalLoop=1;jettySize=auto;html=1;exitX=1;exitY=1;exitDx=0;exitDy=0;exitPerimeter=0;entryX=0;entryY=0.5;entryDx=0;entryDy=0;labelBackgroundColor=#F1FAEE;strokeColor=#457B9D;fontColor=#1D3557;" parent="1" source="gm_n-ACZynz3XcOMJZWt-7" target="gm_n-ACZynz3XcOMJZWt-13" edge="1">
          <mxGeometry relative="1" as="geometry" />
        </mxCell>
        <mxCell id="gm_n-ACZynz3XcOMJZWt-7" value="" style="strokeWidth=1;html=1;shape=mxgraph.flowchart.annotation_2;align=left;labelPosition=right;pointerEvents=1;fillColor=#A8DADC;strokeColor=#457B9D;fontColor=#1D3557;rounded=1;" parent="1" vertex="1">
          <mxGeometry x="278.5" y="130" width="50" height="259" as="geometry" />
        </mxCell>
        <mxCell id="gm_n-ACZynz3XcOMJZWt-8" value="in-sequence" style="whiteSpace=wrap;html=1;align=center;strokeWidth=1;fillColor=#A8DADC;strokeColor=#457B9D;fontColor=#1D3557;rounded=1;" parent="1" vertex="1">
          <mxGeometry x="381" y="116" width="86" height="30" as="geometry" />
        </mxCell>
        <mxCell id="gm_n-ACZynz3XcOMJZWt-9" value="" style="edgeStyle=none;orthogonalLoop=1;jettySize=auto;html=1;labelBackgroundColor=#F1FAEE;strokeColor=#457B9D;fontColor=#1D3557;" parent="1" source="gm_n-ACZynz3XcOMJZWt-10" target="gm_n-ACZynz3XcOMJZWt-32" edge="1">
          <mxGeometry relative="1" as="geometry" />
        </mxCell>
        <mxCell id="gm_n-ACZynz3XcOMJZWt-10" value="&lt;b&gt;...&lt;/b&gt;" style="shape=process;whiteSpace=wrap;html=1;backgroundOutline=1;strokeWidth=1;fillColor=#A8DADC;strokeColor=#457B9D;fontColor=#1D3557;rounded=1;" parent="1" vertex="1">
          <mxGeometry x="651" y="117" width="70" height="29" as="geometry" />
        </mxCell>
        <mxCell id="gm_n-ACZynz3XcOMJZWt-11" value="core logic" style="endArrow=classic;html=1;entryX=1;entryY=0.5;entryDx=0;entryDy=0;exitX=0.5;exitY=0;exitDx=0;exitDy=0;fillColor=#A8DADC;strokeColor=#457B9D;labelBackgroundColor=#F1FAEE;fontColor=#1D3557;" parent="1" source="gm_n-ACZynz3XcOMJZWt-10" edge="1">
          <mxGeometry width="50" height="50" relative="1" as="geometry">
            <mxPoint x="686" y="87" as="sourcePoint" />
            <mxPoint x="290" y="60" as="targetPoint" />
            <Array as="points">
              <mxPoint x="686" y="60" />
            </Array>
          </mxGeometry>
        </mxCell>
        <mxCell id="gm_n-ACZynz3XcOMJZWt-12" value="" style="edgeStyle=none;orthogonalLoop=1;jettySize=auto;html=1;labelBackgroundColor=#F1FAEE;strokeColor=#457B9D;fontColor=#1D3557;" parent="1" source="gm_n-ACZynz3XcOMJZWt-13" target="gm_n-ACZynz3XcOMJZWt-20" edge="1">
          <mxGeometry relative="1" as="geometry">
            <mxPoint x="405.52631578947376" y="465" as="targetPoint" />
          </mxGeometry>
        </mxCell>
        <mxCell id="gm_n-ACZynz3XcOMJZWt-13" value="in-sequence" style="whiteSpace=wrap;html=1;align=center;strokeWidth=1;fillColor=#A8DADC;strokeColor=#457B9D;fontColor=#1D3557;rounded=1;" parent="1" vertex="1">
          <mxGeometry x="360" y="374" width="86" height="30" as="geometry" />
        </mxCell>
        <mxCell id="gm_n-ACZynz3XcOMJZWt-14" value="" style="endArrow=classic;html=1;exitX=1;exitY=0.5;exitDx=0;exitDy=0;labelBackgroundColor=#F1FAEE;strokeColor=#457B9D;fontColor=#1D3557;" parent="1" source="gm_n-ACZynz3XcOMJZWt-8" edge="1">
          <mxGeometry width="50" height="50" relative="1" as="geometry">
            <mxPoint x="480" y="181" as="sourcePoint" />
            <mxPoint x="530" y="131" as="targetPoint" />
          </mxGeometry>
        </mxCell>
        <mxCell id="gm_n-ACZynz3XcOMJZWt-15" style="orthogonalLoop=1;jettySize=auto;html=1;exitX=1;exitY=0.5;exitDx=0;exitDy=0;entryX=0;entryY=0.5;entryDx=0;entryDy=0;entryPerimeter=0;labelBackgroundColor=#F1FAEE;strokeColor=#457B9D;fontColor=#1D3557;" parent="1" source="gm_n-ACZynz3XcOMJZWt-13" target="gm_n-ACZynz3XcOMJZWt-16" edge="1">
          <mxGeometry relative="1" as="geometry" />
        </mxCell>
        <mxCell id="gm_n-ACZynz3XcOMJZWt-16" value="" style="strokeWidth=1;html=1;shape=mxgraph.flowchart.annotation_2;align=left;labelPosition=right;pointerEvents=1;fillColor=#A8DADC;strokeColor=#457B9D;fontColor=#1D3557;rounded=1;" parent="1" vertex="1">
          <mxGeometry x="506" y="205" width="50" height="369" as="geometry" />
        </mxCell>
        <mxCell id="gm_n-ACZynz3XcOMJZWt-17" value="" style="endArrow=none;html=1;entryX=1;entryY=0.5;entryDx=0;entryDy=0;entryPerimeter=0;labelBackgroundColor=#F1FAEE;strokeColor=#457B9D;fontColor=#1D3557;" parent="1" edge="1">
          <mxGeometry width="50" height="50" relative="1" as="geometry">
            <mxPoint x="531" y="316" as="sourcePoint" />
            <mxPoint x="557" y="316" as="targetPoint" />
          </mxGeometry>
        </mxCell>
        <mxCell id="gm_n-ACZynz3XcOMJZWt-18" value="" style="edgeStyle=orthogonalEdgeStyle;orthogonalLoop=1;jettySize=auto;html=1;labelBackgroundColor=#F1FAEE;strokeColor=#457B9D;fontColor=#1D3557;" parent="1" source="gm_n-ACZynz3XcOMJZWt-19" target="gm_n-ACZynz3XcOMJZWt-10" edge="1">
          <mxGeometry relative="1" as="geometry" />
        </mxCell>
        <mxCell id="gm_n-ACZynz3XcOMJZWt-19" value="table service" style="whiteSpace=wrap;html=1;align=center;strokeWidth=1;fillColor=#A8DADC;strokeColor=#457B9D;fontColor=#1D3557;rounded=1;" parent="1" vertex="1">
          <mxGeometry x="530" y="116" width="86" height="30" as="geometry" />
        </mxCell>
        <mxCell id="gm_n-ACZynz3XcOMJZWt-20" value="esb" style="whiteSpace=wrap;html=1;align=center;strokeWidth=1;fillColor=#A8DADC;strokeColor=#457B9D;fontColor=#1D3557;rounded=1;" parent="1" vertex="1">
          <mxGeometry x="360" y="511" width="86" height="30" as="geometry" />
        </mxCell>
        <mxCell id="gm_n-ACZynz3XcOMJZWt-21" value="rabbit mq" style="whiteSpace=wrap;html=1;align=center;strokeWidth=1;fillColor=#A8DADC;strokeColor=#457B9D;fontColor=#1D3557;rounded=1;" parent="1" vertex="1">
          <mxGeometry x="556" y="190" width="86" height="30" as="geometry" />
        </mxCell>
        <mxCell id="gm_n-ACZynz3XcOMJZWt-22" style="edgeStyle=none;orthogonalLoop=1;jettySize=auto;html=1;entryX=0;entryY=0.5;entryDx=0;entryDy=0;entryPerimeter=0;labelBackgroundColor=#F1FAEE;strokeColor=#457B9D;fontColor=#1D3557;" parent="1" source="gm_n-ACZynz3XcOMJZWt-23" target="gm_n-ACZynz3XcOMJZWt-34" edge="1">
          <mxGeometry relative="1" as="geometry">
            <mxPoint x="670" y="315" as="targetPoint" />
          </mxGeometry>
        </mxCell>
        <mxCell id="gm_n-ACZynz3XcOMJZWt-23" value="dss" style="whiteSpace=wrap;html=1;align=center;strokeWidth=1;fillColor=#A8DADC;strokeColor=#457B9D;fontColor=#1D3557;rounded=1;" parent="1" vertex="1">
          <mxGeometry x="556" y="300" width="86" height="30" as="geometry" />
        </mxCell>
        <mxCell id="gm_n-ACZynz3XcOMJZWt-24" value="" style="edgeStyle=none;orthogonalLoop=1;jettySize=auto;html=1;labelBackgroundColor=#F1FAEE;strokeColor=#457B9D;fontColor=#1D3557;" parent="1" source="gm_n-ACZynz3XcOMJZWt-25" edge="1">
          <mxGeometry relative="1" as="geometry">
            <mxPoint x="690" y="573" as="targetPoint" />
          </mxGeometry>
        </mxCell>
        <mxCell id="gm_n-ACZynz3XcOMJZWt-25" value="is" style="whiteSpace=wrap;html=1;align=center;strokeWidth=1;fillColor=#A8DADC;strokeColor=#457B9D;fontColor=#1D3557;rounded=1;" parent="1" vertex="1">
          <mxGeometry x="556" y="559" width="86" height="30" as="geometry" />
        </mxCell>
        <mxCell id="gm_n-ACZynz3XcOMJZWt-26" style="edgeStyle=none;orthogonalLoop=1;jettySize=auto;html=1;labelBackgroundColor=#F1FAEE;strokeColor=#457B9D;fontColor=#1D3557;dashed=1;" parent="1" edge="1">
          <mxGeometry relative="1" as="geometry">
            <mxPoint x="672" y="206" as="targetPoint" />
            <mxPoint x="642" y="206" as="sourcePoint" />
          </mxGeometry>
        </mxCell>
        <mxCell id="gm_n-ACZynz3XcOMJZWt-27" value="" style="edgeStyle=none;orthogonalLoop=1;jettySize=auto;html=1;labelBackgroundColor=#F1FAEE;strokeColor=#457B9D;fontColor=#1D3557;dashed=1;" parent="1" source="gm_n-ACZynz3XcOMJZWt-28" target="gm_n-ACZynz3XcOMJZWt-30" edge="1">
          <mxGeometry relative="1" as="geometry" />
        </mxCell>
        <mxCell id="gm_n-ACZynz3XcOMJZWt-28" value="connector" style="whiteSpace=wrap;html=1;align=center;strokeWidth=1;fillColor=#A8DADC;strokeColor=#457B9D;fontColor=#1D3557;rounded=1;" parent="1" vertex="1">
          <mxGeometry x="671" y="191" width="86" height="30" as="geometry" />
        </mxCell>
        <mxCell id="gm_n-ACZynz3XcOMJZWt-29" value="" style="edgeStyle=none;orthogonalLoop=1;jettySize=auto;html=1;labelBackgroundColor=#F1FAEE;strokeColor=#457B9D;fontColor=#1D3557;entryX=0;entryY=0.5;entryDx=0;entryDy=0;entryPerimeter=0;dashed=1;" parent="1" source="gm_n-ACZynz3XcOMJZWt-30" target="gm_n-ACZynz3XcOMJZWt-31" edge="1">
          <mxGeometry relative="1" as="geometry">
            <mxPoint x="910" y="208" as="targetPoint" />
          </mxGeometry>
        </mxCell>
        <mxCell id="gm_n-ACZynz3XcOMJZWt-30" value="casino data service" style="whiteSpace=wrap;html=1;align=center;strokeWidth=1;fillColor=#A8DADC;strokeColor=#457B9D;fontColor=#1D3557;rounded=1;" parent="1" vertex="1">
          <mxGeometry x="790" y="190" width="90" height="35" as="geometry" />
        </mxCell>
        <mxCell id="gm_n-ACZynz3XcOMJZWt-31" value="&lt;br&gt;camp db" style="strokeWidth=2;html=1;shape=mxgraph.flowchart.database;whiteSpace=wrap;fillColor=#A8DADC;strokeColor=#457B9D;fontColor=#1D3557;dashed=1;dashPattern=1 1;rounded=1;" parent="1" vertex="1">
          <mxGeometry x="930" y="177.5" width="60" height="60" as="geometry" />
        </mxCell>
        <mxCell id="gm_n-ACZynz3XcOMJZWt-32" value="&lt;br&gt;casino db" style="strokeWidth=2;html=1;shape=mxgraph.flowchart.database;whiteSpace=wrap;fillColor=#A8DADC;strokeColor=#457B9D;fontColor=#1D3557;rounded=1;" parent="1" vertex="1">
          <mxGeometry x="770" y="103" width="61" height="52" as="geometry" />
        </mxCell>
        <mxCell id="gm_n-ACZynz3XcOMJZWt-33" value="agent job" style="edgeStyle=none;orthogonalLoop=1;jettySize=auto;html=1;labelBackgroundColor=#F1FAEE;strokeColor=#457B9D;fontColor=#1D3557;dashed=1;" parent="1" source="gm_n-ACZynz3XcOMJZWt-34" target="gm_n-ACZynz3XcOMJZWt-35" edge="1">
          <mxGeometry relative="1" as="geometry" />
        </mxCell>
        <mxCell id="gm_n-ACZynz3XcOMJZWt-34" value="&lt;br&gt;dw db" style="strokeWidth=2;html=1;shape=mxgraph.flowchart.database;whiteSpace=wrap;fillColor=#A8DADC;strokeColor=#457B9D;fontColor=#1D3557;rounded=1;" parent="1" vertex="1">
          <mxGeometry x="684" y="285" width="60" height="60" as="geometry" />
        </mxCell>
        <mxCell id="gm_n-ACZynz3XcOMJZWt-35" value="&lt;br&gt;camp db" style="strokeWidth=2;html=1;shape=mxgraph.flowchart.database;whiteSpace=wrap;fillColor=#A8DADC;strokeColor=#457B9D;fontColor=#1D3557;dashed=1;dashPattern=1 1;rounded=1;" parent="1" vertex="1">
          <mxGeometry x="870" y="285" width="60" height="60" as="geometry" />
        </mxCell>
        <mxCell id="gm_n-ACZynz3XcOMJZWt-36" value="&lt;br&gt;appache ds" style="strokeWidth=2;html=1;shape=mxgraph.flowchart.database;whiteSpace=wrap;fillColor=#A8DADC;strokeColor=#457B9D;fontColor=#1D3557;rounded=1;" parent="1" vertex="1">
          <mxGeometry x="692" y="541" width="60" height="60" as="geometry" />
        </mxCell>
        <mxCell id="gm_n-ACZynz3XcOMJZWt-37" style="edgeStyle=none;orthogonalLoop=1;jettySize=auto;html=1;exitX=0.5;exitY=1;exitDx=0;exitDy=0;exitPerimeter=0;labelBackgroundColor=#F1FAEE;strokeColor=#457B9D;fontColor=#1D3557;" parent="1" source="gm_n-ACZynz3XcOMJZWt-7" target="gm_n-ACZynz3XcOMJZWt-7" edge="1">
          <mxGeometry relative="1" as="geometry" />
        </mxCell>
        <mxCell id="gm_n-ACZynz3XcOMJZWt-38" value="" style="endArrow=none;html=1;labelBackgroundColor=#F1FAEE;strokeColor=#457B9D;fontColor=#1D3557;" parent="1" edge="1">
          <mxGeometry width="50" height="50" relative="1" as="geometry">
            <mxPoint x="560" y="430" as="sourcePoint" />
            <mxPoint x="531" y="430" as="targetPoint" />
          </mxGeometry>
        </mxCell>
        <mxCell id="gm_n-ACZynz3XcOMJZWt-39" value="" style="edgeStyle=none;orthogonalLoop=1;jettySize=auto;html=1;labelBackgroundColor=#F1FAEE;strokeColor=#457B9D;fontColor=#1D3557;" parent="1" source="gm_n-ACZynz3XcOMJZWt-40" target="gm_n-ACZynz3XcOMJZWt-41" edge="1">
          <mxGeometry relative="1" as="geometry" />
        </mxCell>
        <mxCell id="gm_n-ACZynz3XcOMJZWt-40" value="api" style="whiteSpace=wrap;html=1;align=center;strokeWidth=1;fillColor=#A8DADC;strokeColor=#457B9D;fontColor=#1D3557;rounded=1;" parent="1" vertex="1">
          <mxGeometry x="556" y="415" width="86" height="30" as="geometry" />
        </mxCell>
        <mxCell id="gm_n-ACZynz3XcOMJZWt-41" value="&lt;b&gt;...&lt;/b&gt;" style="shape=process;whiteSpace=wrap;html=1;backgroundOutline=1;strokeWidth=1;fillColor=#A8DADC;strokeColor=#457B9D;fontColor=#1D3557;rounded=1;" parent="1" vertex="1">
          <mxGeometry x="679" y="416" width="70" height="29" as="geometry" />
        </mxCell>
        <mxCell id="gm_n-ACZynz3XcOMJZWt-43" value="1. Casino-DB:&lt;br&gt;&amp;nbsp; - 数据来源: table service&lt;br&gt;&amp;nbsp; - 作用: 主要记录 table 上的一切操作, 以及输赢[最原始的数据]&lt;br&gt;2. DW-DB:&lt;br&gt;&amp;nbsp; - 数据来源: esb winloss sequence&lt;br&gt;&amp;nbsp; - 作用: winloss 的存储&lt;br&gt;3. Camp-DB: &lt;b&gt;祛除了业务数据&lt;/b&gt;&lt;br&gt;&amp;nbsp; - 数据来源:&amp;nbsp;`casino data service`&amp;nbsp;+&amp;nbsp;`dw job`&amp;nbsp;+&amp;nbsp;`hange fire job`&lt;br&gt;&amp;nbsp; &amp;nbsp; ```txt&lt;br&gt;&amp;nbsp; &amp;nbsp; -&amp;nbsp;hangfire job:&amp;nbsp;casinoDB&amp;nbsp;--&amp;gt;&amp;nbsp;camp&lt;br&gt;&amp;nbsp; &amp;nbsp; -&amp;nbsp;table&amp;nbsp;--&amp;gt;&amp;nbsp;esb&amp;nbsp;--&amp;gt;&amp;nbsp;proxy&amp;nbsp;--&amp;gt;&amp;nbsp;DW&amp;nbsp;--&amp;gt;&amp;nbsp;agent-job&amp;nbsp;--&amp;gt;&amp;nbsp;camp&lt;br&gt;&amp;nbsp; &amp;nbsp; -&amp;nbsp;table&amp;nbsp;--&amp;gt;&amp;nbsp;esb&amp;nbsp;--&amp;gt;&amp;nbsp;proxy&amp;nbsp;--&amp;gt;&amp;nbsp;connectorcasino data&amp;nbsp; service&amp;nbsp;--&amp;gt;&amp;nbsp;camp&lt;br&gt;&amp;nbsp; &amp;nbsp; ```&lt;br&gt;&amp;nbsp; - 作用:&amp;nbsp;**wso2 需要的表**&amp;nbsp;+&amp;nbsp;**手机端数据的展示**" style="text;spacing=5;spacingTop=-20;overflow=hidden;align=left;shadow=0;html=1;whiteSpace=wrap;verticalAlign=middle;rounded=1;" parent="1" vertex="1">
          <mxGeometry x="40" y="610" width="700" height="210" as="geometry" />
        </mxCell>
        <mxCell id="QCnXCAdeGj5szQaQYv4q-26" value="" style="edgeStyle=segmentEdgeStyle;endArrow=classic;html=1;dashed=1;fontColor=#FF0000;entryX=0.5;entryY=1;entryDx=0;entryDy=0;" edge="1" parent="1" target="gm_n-ACZynz3XcOMJZWt-4">
          <mxGeometry width="50" height="50" relative="1" as="geometry">
            <mxPoint x="360" y="526" as="sourcePoint" />
            <mxPoint x="170" y="389" as="targetPoint" />
            <Array as="points">
              <mxPoint x="360" y="526" />
              <mxPoint x="231" y="526" />
            </Array>
          </mxGeometry>
        </mxCell>
        <mxCell id="QCnXCAdeGj5szQaQYv4q-33" value="api" style="edgeStyle=orthogonalEdgeStyle;orthogonalLoop=1;jettySize=auto;html=1;exitX=1;exitY=0.5;exitDx=0;exitDy=0;entryX=0;entryY=0.5;entryDx=0;entryDy=0;endArrow=async;endFill=1;labelBackgroundColor=#ffffff;" edge="1" parent="1">
          <mxGeometry relative="1" as="geometry">
            <mxPoint x="364" y="1025" as="sourcePoint" />
            <mxPoint x="240" y="1025" as="targetPoint" />
          </mxGeometry>
        </mxCell>
        <mxCell id="QCnXCAdeGj5szQaQYv4q-36" value="esb" style="edgeStyle=orthogonalEdgeStyle;orthogonalLoop=1;jettySize=auto;html=1;entryX=0;entryY=0.5;entryDx=0;entryDy=0;endArrow=async;endFill=1;" edge="1" parent="1">
          <mxGeometry relative="1" as="geometry">
            <mxPoint x="240" y="1008" as="sourcePoint" />
            <mxPoint x="364" y="1008" as="targetPoint" />
          </mxGeometry>
        </mxCell>
        <mxCell id="QCnXCAdeGj5szQaQYv4q-28" value="&lt;span&gt;casino system&lt;/span&gt;" style="whiteSpace=wrap;html=1;shadow=0;fillColor=none;gradientColor=none;align=center;rounded=1;" vertex="1" parent="1">
          <mxGeometry x="120" y="990" width="120" height="50" as="geometry" />
        </mxCell>
        <mxCell id="QCnXCAdeGj5szQaQYv4q-37" style="edgeStyle=orthogonalEdgeStyle;orthogonalLoop=1;jettySize=auto;html=1;entryX=0;entryY=0.5;entryDx=0;entryDy=0;endArrow=async;endFill=1;fontColor=#FF0000;" edge="1" parent="1">
          <mxGeometry relative="1" as="geometry">
            <mxPoint x="490" y="1008" as="sourcePoint" />
            <mxPoint x="601" y="1008" as="targetPoint" />
          </mxGeometry>
        </mxCell>
        <mxCell id="QCnXCAdeGj5szQaQYv4q-47" style="edgeStyle=orthogonalEdgeStyle;orthogonalLoop=1;jettySize=auto;html=1;exitX=0.75;exitY=1;exitDx=0;exitDy=0;entryX=0.75;entryY=0;entryDx=0;entryDy=0;endArrow=async;endFill=1;fontColor=#FF0000;" edge="1" parent="1" source="QCnXCAdeGj5szQaQYv4q-29" target="QCnXCAdeGj5szQaQYv4q-40">
          <mxGeometry relative="1" as="geometry" />
        </mxCell>
        <mxCell id="QCnXCAdeGj5szQaQYv4q-48" value="receive" style="edgeLabel;html=1;align=center;verticalAlign=middle;resizable=0;points=[];fontColor=#000000;" vertex="1" connectable="0" parent="QCnXCAdeGj5szQaQYv4q-47">
          <mxGeometry x="-0.1818" y="1" relative="1" as="geometry">
            <mxPoint y="8" as="offset" />
          </mxGeometry>
        </mxCell>
        <mxCell id="QCnXCAdeGj5szQaQYv4q-29" value="azure service bus" style="whiteSpace=wrap;html=1;shadow=0;fillColor=none;gradientColor=none;align=center;rounded=1;" vertex="1" parent="1">
          <mxGeometry x="364" y="990" width="126" height="50" as="geometry" />
        </mxCell>
        <mxCell id="QCnXCAdeGj5szQaQYv4q-38" style="edgeStyle=orthogonalEdgeStyle;orthogonalLoop=1;jettySize=auto;html=1;exitX=0;exitY=0.75;exitDx=0;exitDy=0;entryX=1;entryY=0.75;entryDx=0;entryDy=0;endArrow=async;endFill=1;fontColor=#FF0000;" edge="1" parent="1" source="QCnXCAdeGj5szQaQYv4q-30" target="QCnXCAdeGj5szQaQYv4q-29">
          <mxGeometry relative="1" as="geometry" />
        </mxCell>
        <mxCell id="QCnXCAdeGj5szQaQYv4q-30" value="third-party system" style="whiteSpace=wrap;html=1;shadow=0;fillColor=none;gradientColor=none;align=center;rounded=1;" vertex="1" parent="1">
          <mxGeometry x="601" y="990" width="119" height="50" as="geometry" />
        </mxCell>
        <mxCell id="QCnXCAdeGj5szQaQYv4q-46" value="send" style="edgeStyle=orthogonalEdgeStyle;orthogonalLoop=1;jettySize=auto;html=1;exitX=0.25;exitY=0;exitDx=0;exitDy=0;entryX=0.25;entryY=1;entryDx=0;entryDy=0;endArrow=async;endFill=1;" edge="1" parent="1" source="QCnXCAdeGj5szQaQYv4q-40" target="QCnXCAdeGj5szQaQYv4q-29">
          <mxGeometry relative="1" as="geometry" />
        </mxCell>
        <mxCell id="QCnXCAdeGj5szQaQYv4q-40" value="integration service" style="whiteSpace=wrap;html=1;shadow=0;fillColor=none;gradientColor=none;align=center;rounded=1;" vertex="1" parent="1">
          <mxGeometry x="364" y="1150" width="126" height="50" as="geometry" />
        </mxCell>
      </root>
    </mxGraphModel>
  </diagram>
</mxfile>
